<?xml version="1.0" encoding="utf-8"?>
<svg viewBox="0 0 360 150" xmlns="http://www.w3.org/2000/svg">
        <defs>
                <clipPath id="clip_13">
                        <path transform="matrix(.24,0,0,.24,0,0)" d="M0 0H1562.5V1562.5H0Z" fill-rule="evenodd"/>
                </clipPath>
                <clipPath id="clip_14">
                        <path transform="matrix(.24,0,0,.24,0,0)" d="M0 468.75H613.16519V1093.75H0Z" fill-rule="evenodd"/>
                </clipPath>
                <clipPath id="clip_15">
                        <path transform="matrix(.24,0,0,.24,0,0)" d="M0 0H1562.5V1562.5H0Z" fill-rule="evenodd"/>
                </clipPath>
        </defs>
        <g clip-path="url(#clip_14)" transform="matrix(1, 0, 0, 1, -9.660324914255767, -112.49999841505822)">
                <path transform="matrix(4.1666667,0,0,4.1666667,-2.8403576,112.5)" d="M32.938 15.651C32.792 15.26 32.418 15 32 15H19.925L26.89 1.458C27.109 1.032 26.996 .51099988 26.619 .21499992 26.437 .07100001 26.218 0 26 0 25.767 0 25.534 .082 25.347 .24300002L18 6.588 3.3470002 19.243C3.0310002 19.516 2.917 19.957 3.0630003 20.348 3.2090004 20.738999 3.582 21 4 21H16.075L9.11 34.542C8.891 34.968 9.004 35.489 9.381 35.785 9.563 35.929 9.782 36 10 36 10.233 36 10.466 35.918 10.653 35.757L18 29.412 32.653 16.757C32.97 16.484 33.083 16.043 32.938 15.651Z" fill="#ffac33"/>
        </g>
        <g clip-path="url(#clip_15)" transform="matrix(1, 0, 0, 1, -9.660324914255767, -112.49999841505822)">
                <path d="M.080078128 0V.7158203H.36317445C.40584819 .7158203 .44252015 .7064921 .4731903 .6878357 .50387069 .66918948 .52737429 .6435445 .5437012 .6109009 .56003829 .5782674 .56754049 .54096987 .5662079 .49900819 .5655467 .47236634 .5600484 .44605509 .54971316 .42007447 .53937789 .394104 .522878 .37345887 .5002136 .35813905 .5235494 .34212748 .5417175 .32128398 .554718 .29560853 .5677185 .26993308 .57421877 .24308777 .57421877 .21507263 .57421877 .17506409 .5647125 .1388855 .5457001 .106536868 .5266978 .07418823 .5011902 .04834493 .46917726 .029006958 .43717448 .009668986 .4018351 0 .36315919 0H.080078128M.22407532 .57281497V.42913819H.35116578C.37184654 .42913819 .3880259 .43628947 .39970399 .45059205 .41138206 .46489463 .41722108 .48168946 .41722108 .50097659 .41722108 .52093508 .41138206 .53789779 .39970399 .5518646 .3880259 .5658315 .37184654 .57281497 .35116578 .57281497H.22407532M.22407532 .2861328V.14300537H.35116578C.37184654 .14300537 .38902284 .15000916 .4026947 .16401673 .41637675 .17803447 .42321778 .1950531 .42321778 .21507263 .42321778 .23508199 .41637675 .2519277 .4026947 .26560975 .38902284 .27929179 .37184654 .2861328 .35116578 .2861328H.22407532Z" transform="matrix(44.335670471191406, 0, 0, -44.335670471191406, 165.75138621463756, 171.0196814285018)" fill="#ffffff"/>
                <path d="M.2230835-.00015258789H.080078128V.71484377H.2230835V-.00015258789Z" transform="matrix(44.335670471191406, 0, 0, -44.335670471191406, 192.16990390884993, 171.0196814285018)" fill="#ffffff"/>
                <path d="M.080078128 .71484377H.2230835V.14300537H.4501953V0H.080078128V.71484377Z" transform="matrix(44.335670471191406, 0, 0, -44.335670471191406, 204.536831835206, 171.0196814285018)" fill="#ffffff"/>
                <path d="M.5800781-.00015258789H.43707276V.28570558H.2230835V-.00015258789H.080078128V.71484377H.2230835V.42871095H.43707276V.71484377H.5800781V-.00015258789Z" transform="matrix(44.335670471191406, 0, 0, -44.335670471191406, 225.2815062255645, 171.0196814285018)" fill="#ffffff"/>
                <path d="M.01600647 0 .31700135 .74121096H.33200074L.6329956 0H.47200013L.44299317 .07714844H.20599365L.17799378 0H.01600647M.2579956 .21115113H.3899994L.32499696 .39717103 .2579956 .21115113Z" transform="matrix(44.335670471191406, 0, 0, -44.335670471191406, 253.4731104426485, 171.0196814285018)" fill="#ffffff"/>
                <path d="M.080078128 .71484377H.2230835V.14300537H.4501953V0H.080078128V.71484377Z" transform="matrix(44.335670471191406, 0, 0, -44.335670471191406, 281.31008514812714, 171.0196814285018)" fill="#ffffff"/>
                <path d="M.080078128 0V.7158203H.36317445C.40584819 .7158203 .44252015 .7064921 .4731903 .6878357 .50387069 .66918948 .52737429 .6435445 .5437012 .6109009 .56003829 .5782674 .56754049 .54096987 .5662079 .49900819 .5655467 .47236634 .5600484 .44605509 .54971316 .42007447 .53937789 .394104 .522878 .37345887 .5002136 .35813905 .5235494 .34212748 .5417175 .32128398 .554718 .29560853 .5677185 .26993308 .57421877 .24308777 .57421877 .21507263 .57421877 .17506409 .5647125 .1388855 .5457001 .106536868 .5266978 .07418823 .5011902 .04834493 .46917726 .029006958 .43717448 .009668986 .4018351 0 .36315919 0H.080078128M.22407532 .57281497V.42913819H.35116578C.37184654 .42913819 .3880259 .43628947 .39970399 .45059205 .41138206 .46489463 .41722108 .48168946 .41722108 .50097659 .41722108 .52093508 .41138206 .53789779 .39970399 .5518646 .3880259 .5658315 .37184654 .57281497 .35116578 .57281497H.22407532M.22407532 .2861328V.14300537H.35116578C.37184654 .14300537 .38902284 .15000916 .4026947 .16401673 .41637675 .17803447 .42321778 .1950531 .42321778 .21507263 .42321778 .23508199 .41637675 .2519277 .4026947 .26560975 .38902284 .27929179 .37184654 .2861328 .35116578 .2861328H.22407532Z" transform="matrix(44.335670471191406, 0, 0, -44.335670471191406, 302.0547747972745, 171.0196814285018)" fill="#ffffff"/>
                <path d="M.01600647 0 .31700135 .74121096H.33200074L.6329956 0H.47200013L.44299317 .07714844H.20599365L.17799378 0H.01600647M.2579956 .21115113H.3899994L.32499696 .39717103 .2579956 .21115113Z" transform="matrix(44.335670471191406, 0, 0, -44.335670471191406, 328.47329249148686, 171.0196814285018)" fill="#ffffff"/>
                <path d="M.12399292 .69999697H.4909973C.49900309 .69999697 .5060018 .6971639 .5119934 .6914978 .5179952 .6858317 .5209961 .67866519 .5209961 .66999819 .5209961 .6613312 .5179952 .65433248 .5119934 .6490021 .5060018 .6436717 .49900309 .64100649 .4909973 .64100649H.14700318L.15699768 .65800479V.3769989L.1459961 .3899994H.44599916C.45399476 .3899994 .46099345 .3869985 .46699525 .3809967 .47299705 .3749949 .47599793 .36799623 .47599793 .3600006 .47599793 .35133363 .47299705 .34432984 .46699525 .33898927 .46099345 .33365885 .45399476 .33099366 .44599916 .33099366H.147995L.15699768 .34100343V.052993776L.1519928 .059005739H.4909973C.49900309 .059005739 .5060018 .05600484 .5119934 .05000305 .5179952 .044001264 .5209961 .037002565 .5209961 .029006958 .5209961 .020339966 .5179952 .013336182 .5119934 .0079956059 .5060018 .002665202 .49900309 0 .4909973 0H.12399292C.115997318 0 .10899862 .0030008953 .102996829 .009002686 .09699503 .015004476 .09399414 .022003174 .09399414 .02999878V.66999819C.09399414 .67800399 .09699503 .6850026 .102996829 .69099429 .10899862 .69699606 .115997318 .69999697 .12399292 .69999697Z" transform="matrix(44.335670471191406, 0, 0, -44.335670471191406, 150.2783792304786, 229.57445965629472)" fill="#6d6c7d"/>
                <path d="M.32000733 .522995C.3640035 .522995 .39916484 .51416018 .42549134 .49649049 .451828 .47883097 .4708303 .45483399 .48249818 .4244995 .49416606 .39416505 .5 .3606669 .5 .32400514V.02999878C.5 .022003174 .4969991 .015004476 .4909973 .009002686 .4849955 .0030008953 .47799684 0 .47000123 0 .46066285 0 .45332847 .0030008953 .44799806 .009002686 .44266764 .015004476 .44000245 .022003174 .44000245 .02999878V.32099916C.44000245 .34766136 .43566896 .37199403 .42700196 .3939972 .41833497 .41600038 .40416465 .43366496 .38449098 .44699098 .36482749 .46032716 .33899943 .46699525 .30700685 .46699525 .27834068 .46699525 .25116984 .46032716 .22549439 .44699098 .1998291 .43366496 .17899578 .41600038 .16299439 .3939972 .14700318 .37199403 .13900757 .34766136 .13900757 .32099916V.02999878C.13900757 .022003174 .13600667 .015004476 .13000489 .009002686 .12400309 .0030008953 .116999309 0 .10899353 0 .09966532 0 .09233093 .0030008953 .08699036 .009002686 .08165995 .015004476 .07899475 .022003174 .07899475 .02999878V.47799684C.07899475 .4860026 .0818278 .4930013 .0874939 .49899293 .093159999 .5049947 .10032654 .5079956 .10899353 .5079956 .11766052 .5079956 .124827068 .5049947 .13049317 .49899293 .13616944 .4930013 .13900757 .4860026 .13900757 .47799684V.3939972L.115997318 .3580017C.11732992 .3793335 .12416077 .39983116 .13648987 .41949464 .14882915 .4391683 .16466268 .45683799 .18399048 .47250367 .20332845 .48816935 .22482808 .5004985 .24848938 .50949099 .27216087 .51849368 .29600016 .522995 .32000733 .522995Z" transform="matrix(44.335670471191406, 0, 0, -44.335670471191406, 174.1258825566155, 229.57445965629472)" fill="#6d6c7d"/>
                <path d="M.29200746 .522995C.32200624 .522995 .3496704 .51782736 .375 .50749209 .4003296 .49716697 .4224955 .48383586 .4414978 .46749879 .4605001 .4511617 .47533164 .43382774 .48599244 .41549684 .49666343 .39716593 .5019989 .3796692 .5019989 .3630066L.4850006 .3869934V.47999574C.4850006 .48866273 .48783366 .4959971 .49349977 .5019989 .49916587 .5080007 .5063324 .5110016 .5149994 .5110016 .52433779 .5110016 .5316722 .5080007 .53700259 .5019989 .54233297 .4959971 .54499819 .48866273 .54499819 .47999574V.04699707C.54499819-.006337484 .5339966-.05133565 .5119934-.08799744 .4900004-.124669399 .46016947-.15250142 .4225006-.17149353 .38483177-.1904958 .34200035-.19999695 .29400636-.19999695 .27067057-.19999695 .24617005-.19699605 .22050476-.19099427 .19483948-.18500264 .1728363-.17733765 .15449524-.16799927 .13616435-.15867107 .1259969-.14900716 .12399292-.13900757 .118662517-.13300579 .11616516-.12717183 .116500858-.12150574 .11683655-.11583964 .119669597-.1110026 .125-.10699463 .13166301-.10233561 .1386617-.10183716 .1459961-.10549927 .15333049-.10916138 .16433208-.113993328 .17900086-.11999512 .18566387-.12199911 .19466146-.125 .20599365-.1289978 .21733602-.1329956 .23084004-.13649495 .24650574-.13949585 .26217143-.14249675 .27867127-.14399719 .29600526-.14399719 .3560028-.14399719 .40250144-.12683106 .4355011-.09249878 .46850077-.058166505 .4850006-.013000488 .4850006 .042999269V.13900757L.4960022 .13600159C.4900004 .1120046 .48016358 .09100342 .4664917 .07299805 .45283 .05500285 .43666587 .039835615 .41799928 .027496338 .39933268 .015167236 .37916566 .00583903 .35749818-.00048828127 .3358307-.006825765 .31433106-.009994507 .29299928-.009994507 .2469991-.009994507 .20566304 .0016682943 .16899109 .024993897 .1323293 .04832967 .10316467 .07999674 .08149719 .11999512 .059829713 .15999349 .04899597 .20566304 .04899597 .25700379 .04899597 .30766297 .059829713 .35315959 .08149719 .39349366 .10316467 .43382774 .13216655 .46549479 .16850281 .48849488 .20483907 .51149496 .24600728 .522995 .29200746 .522995M.29899598 .46699525C.2623342 .46699525 .22950237 .4578298 .20050049 .4394989 .17149861 .421168 .14882915 .39616905 .13249207 .36450196 .11616516 .33283488 .10800171 .29700218 .10800171 .25700379 .10800171 .21700542 .11616516 .18100484 .13249207 .14900208 .14882915 .116999309 .17149861 .09183248 .20050049 .07350159 .22950237 .055170698 .2623342 .04600525 .29899598 .04600525 .33566795 .04600525 .368337 .05500285 .39700318 .07299805 .42566935 .09100342 .44833375 .11583964 .46499635 .14750672 .4816691 .17917378 .4900055 .2156728 .4900055 .25700379 .4900055 .29833476 .4816691 .33483378 .46499635 .36650086 .44833375 .39816795 .42566935 .4228312 .39700318 .44049073 .368337 .4581604 .33566795 .46699525 .29899598 .46699525Z" transform="matrix(44.335670471191406, 0, 0, -44.335670471191406, 198.41666895756194, 229.57445965629472)" fill="#6d6c7d"/>
                <path d="M.30999757-.009994507C.258667-.009994507 .21333313 .0010019938 .17399597 .022994996 .13466899 .04499817 .104003909 .075663249 .08200073 .114990238 .05999756 .1543274 .04899597 .20033264 .04899597 .25300599 .04899597 .30966697 .06016032 .3579966 .08248901 .397995 .10482788 .43799339 .13382976 .4688263 .16949463 .49049378 .20516968 .51216128 .2430064 .522995 .28300477 .522995 .31233216 .522995 .34083048 .51782736 .36849977 .50749209 .39616905 .49716697 .4208374 .48183695 .44250489 .46150209 .46417237 .4411672 .48150636 .41633097 .49450685 .3869934 .5075073 .35766603 .5146739 .32366944 .51600649 .28500367 .5153351 .2769979 .5119985 .27016197 .5059967 .26449586 .4999949 .25882975 .49299623 .2559967 .4850006 .2559967H.083999637L.072006229 .30999757H.46600343L.45300294 .29800416V.31799317C.45033775 .34933473 .44033814 .37600199 .42300416 .397995 .40567018 .41999818 .38466899 .43666587 .3600006 .44799806 .33533225 .45933024 .30966697 .46499635 .28300477 .46499635 .26300559 .46499635 .24250286 .46099345 .22149658 .45298768 .20050049 .44499208 .1815033 .43249513 .164505 .41549684 .14750672 .39849855 .13367208 .37683106 .1230011 .35049439 .11233012 .32416789 .10699463 .29300437 .10699463 .25700379 .10699463 .21766663 .11499532 .18199666 .1309967 .1499939 .14699809 .118001308 .17016602 .092671718 .20050049 .07400513 .23083496 .055338544 .2670034 .04600525 .30900575 .04600525 .33233134 .04600525 .35332743 .04933675 .37199403 .055999757 .3906606 .06266276 .40699259 .071492519 .42099 .08248901 .43499757 .09349569 .44666545 .10500082 .45599366 .117004398 .46332804 .12300619 .47066245 .12600708 .47799684 .12600708 .48467 .12600708 .49050395 .12333679 .49549867 .117996219 .50050356 .11266581 .503006 .106669109 .503006 .1000061 .503006 .09200033 .4996694 .084996547 .49299623 .07899475 .47299705 .05499776 .44699607 .03416443 .4149933 .016494751 .3830007-.0011647543 .3480021-.009994507 .30999757-.009994507Z" transform="matrix(44.335670471191406, 0, 0, -44.335670471191406, 224.7464873122036, 229.57445965629472)" fill="#6d6c7d"/>
                <path d="M.32000733 .522995C.3640035 .522995 .39916484 .51416018 .42549134 .49649049 .451828 .47883097 .4708303 .45483399 .48249818 .4244995 .49416606 .39416505 .5 .3606669 .5 .32400514V.02999878C.5 .022003174 .4969991 .015004476 .4909973 .009002686 .4849955 .0030008953 .47799684 0 .47000123 0 .46066285 0 .45332847 .0030008953 .44799806 .009002686 .44266764 .015004476 .44000245 .022003174 .44000245 .02999878V.32099916C.44000245 .34766136 .43566896 .37199403 .42700196 .3939972 .41833497 .41600038 .40416465 .43366496 .38449098 .44699098 .36482749 .46032716 .33899943 .46699525 .30700685 .46699525 .27834068 .46699525 .25116984 .46032716 .22549439 .44699098 .1998291 .43366496 .17899578 .41600038 .16299439 .3939972 .14700318 .37199403 .13900757 .34766136 .13900757 .32099916V.02999878C.13900757 .022003174 .13600667 .015004476 .13000489 .009002686 .12400309 .0030008953 .116999309 0 .10899353 0 .09966532 0 .09233093 .0030008953 .08699036 .009002686 .08165995 .015004476 .07899475 .022003174 .07899475 .02999878V.47799684C.07899475 .4860026 .0818278 .4930013 .0874939 .49899293 .093159999 .5049947 .10032654 .5079956 .10899353 .5079956 .11766052 .5079956 .124827068 .5049947 .13049317 .49899293 .13616944 .4930013 .13900757 .4860026 .13900757 .47799684V.3939972L.115997318 .3580017C.11732992 .3793335 .12416077 .39983116 .13648987 .41949464 .14882915 .4391683 .16466268 .45683799 .18399048 .47250367 .20332845 .48816935 .22482808 .5004985 .24848938 .50949099 .27216087 .51849368 .29600016 .522995 .32000733 .522995Z" transform="matrix(44.335670471191406, 0, 0, -44.335670471191406, 248.46102555232312, 229.57445965629472)" fill="#6d6c7d"/>
                <path d="M.31199647 .5149994C.3539988 .5149994 .3880005 .5059967 .41400147 .48799134 .44000245 .46999613 .45916749 .44566346 .47149659 .4149933 .48383586 .38433329 .4900055 .3503367 .4900055 .31300355V.02999878C.4900055 .022003174 .4870046 .015004476 .4810028 .009002686 .475001 .0030008953 .46800233 0 .4600067 0 .45066834 0 .44332887 .0030008953 .43798829 .009002686 .43265788 .015004476 .42999269 .022003174 .42999269 .02999878V.31300355C.42999269 .34033714 .42582704 .3650004 .41749574 .3869934 .40916444 .40899659 .3956655 .4264984 .3769989 .4394989 .3583323 .4524994 .33333335 .45899964 .30200196 .45899964 .27399699 .45899964 .24749248 .4524994 .2224884 .4394989 .1974945 .4264984 .17733257 .40899659 .16200257 .3869934 .14667256 .3650004 .13900757 .34033714 .13900757 .31300355V.02999878C.13900757 .022003174 .13600667 .015004476 .13000489 .009002686 .12400309 .0030008953 .116999309 0 .10899353 0 .09966532 0 .09233093 .0030008953 .08699036 .009002686 .08165995 .015004476 .07899475 .022003174 .07899475 .02999878V.7100067C.07899475 .7180023 .0818278 .72500106 .0874939 .7310028 .093159999 .7370046 .10032654 .7400055 .10899353 .7400055 .11766052 .7400055 .124827068 .7370046 .13049317 .7310028 .13616944 .72500106 .13900757 .7180023 .13900757 .7100067V.3860016L.115997318 .35099793C.11732992 .3716685 .12383016 .39183555 .13549805 .41149903 .14716594 .4311625 .16233318 .44882713 .18099976 .4644928 .19966634 .48016868 .22033184 .49250285 .24299622 .50149539 .2656606 .51049807 .28866069 .5149994 .31199647 .5149994Z" transform="matrix(44.335670471191406, 0, 0, -44.335670471191406, 272.75179669448073, 229.57445965629472)" fill="#6d6c7d"/>
                <path d="M.4980011 .5110016C.5066681 .5110016 .51383468 .5080007 .51950076 .5019989 .5251668 .4959971 .5279999 .48866273 .5279999 .47999574V.02999878C.5279999 .022003174 .52499899 .015004476 .5189972 .009002686 .5129954 .0030008953 .5059967 0 .4980011 0 .4893341 0 .48216758 .0030008953 .47650147 .009002686 .47083537 .015004476 .46800233 .022003174 .46800233 .02999878V.14900208L.4850006 .15699768C.4850006 .1383311 .47983299 .11932882 .46949769 .099990848 .45916239 .08066305 .44499208 .06266276 .4269867 .04598999 .4089915 .029327393 .38782756 .015828452 .36349488 .005493164 .3391622-.0048319499 .31299845-.009994507 .28500367-.009994507 .23966472-.009994507 .1991628 .0016682943 .16349793 .024993897 .12783306 .04832967 .09983317 .080332439 .07949829 .1210022 .05916341 .16167195 .04899597 .20733643 .04899597 .2579956 .04899597 .30999757 .059326173 .35582987 .07998657 .39549256 .10065714 .4351654 .12865703 .46633403 .1639862 .4889984 .19932556 .5116628 .23932903 .522995 .28399659 .522995 .31266276 .522995 .3394928 .5179952 .3644867 .5079956 .38949076 .497996 .41132609 .48432923 .42999269 .46699525 .44865928 .44966126 .4631602 .42982484 .47349549 .40748597 .48383079 .38515727 .4889984 .36199443 .4889984 .33799745L.46800233 .35299684V.47999574C.46800233 .48866273 .47083537 .4959971 .47650147 .5019989 .48216758 .5080007 .4893341 .5110016 .4980011 .5110016M.2899933 .04600525C.32533265 .04600525 .3566691 .055170698 .3840027 .07350159 .41133628 .09183248 .4328359 .11716207 .4485016 .14949036 .46416728 .18182881 .47200013 .21799724 .47200013 .2579956 .47200013 .29733277 .46416728 .33266703 .4485016 .3639984 .4328359 .3953298 .41133628 .42032878 .3840027 .43899537 .3566691 .45766197 .32533265 .46699525 .2899933 .46699525 .25533549 .46699525 .22417195 .45799256 .19650269 .43998719 .16883342 .42199198 .14716594 .3973287 .13150025 .3659973 .11583456 .33466593 .10800171 .29866538 .10800171 .2579956 .10800171 .21799724 .11583456 .18182881 .13150025 .14949036 .14716594 .11716207 .16866558 .09183248 .19599915 .07350159 .22333272 .055170698 .2546641 .04600525 .2899933 .04600525Z" transform="matrix(44.335670471191406, 0, 0, -44.335670471191406, 296.5993000206176, 229.57445965629472)" fill="#6d6c7d"/>
                <path d="M.10899353 0C.09966532 0 .09233093 .0030008953 .08699036 .009002686 .08165995 .015004476 .07899475 .022003174 .07899475 .02999878V.47799684C.07899475 .4860026 .0818278 .4930013 .0874939 .49899293 .093159999 .5049947 .10032654 .5079956 .10899353 .5079956 .11766052 .5079956 .124827068 .5049947 .13049317 .49899293 .13616944 .4930013 .13900757 .4860026 .13900757 .47799684V.32800294L.12399292 .32499696C.1259969 .34833274 .13183086 .37150065 .14149475 .39450074 .15116883 .41750083 .16433716 .43866477 .18099976 .45799256 .19766236 .47733055 .2174937 .49299623 .24049378 .5049896 .26349388 .5169932 .289327 .522995 .31799317 .522995 .32999674 .522995 .34166465 .52049258 .35299684 .5154877 .364329 .510493 .36999513 .5023295 .36999513 .4909973 .36999513 .4809977 .36732994 .47333274 .3619995 .46800233 .3566691 .4626719 .3503367 .4600067 .34300233 .4600067 .33700053 .4600067 .33050028 .46166993 .3235016 .46499635 .3165029 .46833293 .30733744 .47000123 .29600526 .47000123 .27733866 .47000123 .2586721 .4644979 .2400055 .4534912 .22133892 .44249473 .20433553 .42766319 .18899536 .40899659 .17366536 .39033 .16149903 .36949668 .15249634 .34649659 .14350383 .3234965 .13900757 .30032859 .13900757 .2769928V.02999878C.13900757 .022003174 .13600667 .015004476 .13000489 .009002686 .12400309 .0030008953 .116999309 0 .10899353 0Z" transform="matrix(44.335670471191406, 0, 0, -44.335670471191406, 322.13125156521085, 229.57445965629472)" fill="#6d6c7d"/>
                <path d="M.13699341 .02999878C.13699341 .022003174 .13399251 .015004476 .12799073 .009002686 .12199911 .0030008953 .115000408 0 .10699463 0 .09832764 0 .091161098 .0030008953 .085494998 .009002686 .079828899 .015004476 .07699585 .022003174 .07699585 .02999878V.4900055C.07699585 .4980011 .079828899 .5049998 .085494998 .5110016 .091161098 .51700338 .09832764 .5200043 .10699463 .5200043 .11566162 .5200043 .12282816 .51700338 .12849427 .5110016 .13416036 .5049998 .13699341 .4980011 .13699341 .4900055V.02999878M.10699463 .5870209C.09299723 .5870209 .08249918 .5901845 .07550049 .59651187 .06850179 .6028493 .06500244 .61201986 .06500244 .62402346V.63401797C.06500244 .64602157 .0688324 .65518698 .07649231 .6615143 .08416239 .66785177 .09466553 .6710205 .10800171 .6710205 .120666507 .6710205 .13049825 .66785177 .13749695 .6615143 .14449565 .65518698 .147995 .64602157 .147995 .63401797V.62402346C.147995 .61201986 .14449565 .6028493 .13749695 .59651187 .13049825 .5901845 .12033081 .5870209 .10699463 .5870209Z" transform="matrix(44.335670471191406, 0, 0, -44.335670471191406, 337.8669691169577, 229.57445965629472)" fill="#6d6c7d"/>
                <path d="M.4980011 .5110016C.5066681 .5110016 .51383468 .5080007 .51950076 .5019989 .5251668 .4959971 .5279999 .48866273 .5279999 .47999574V.02999878C.5279999 .022003174 .52499899 .015004476 .5189972 .009002686 .5129954 .0030008953 .5059967 0 .4980011 0 .4893341 0 .48216758 .0030008953 .47650147 .009002686 .47083537 .015004476 .46800233 .022003174 .46800233 .02999878V.14900208L.4850006 .15699768C.4850006 .1383311 .47983299 .11932882 .46949769 .099990848 .45916239 .08066305 .44499208 .06266276 .4269867 .04598999 .4089915 .029327393 .38782756 .015828452 .36349488 .005493164 .3391622-.0048319499 .31299845-.009994507 .28500367-.009994507 .23966472-.009994507 .1991628 .0016682943 .16349793 .024993897 .12783306 .04832967 .09983317 .080332439 .07949829 .1210022 .05916341 .16167195 .04899597 .20733643 .04899597 .2579956 .04899597 .30999757 .059326173 .35582987 .07998657 .39549256 .10065714 .4351654 .12865703 .46633403 .1639862 .4889984 .19932556 .5116628 .23932903 .522995 .28399659 .522995 .31266276 .522995 .3394928 .5179952 .3644867 .5079956 .38949076 .497996 .41132609 .48432923 .42999269 .46699525 .44865928 .44966126 .4631602 .42982484 .47349549 .40748597 .48383079 .38515727 .4889984 .36199443 .4889984 .33799745L.46800233 .35299684V.47999574C.46800233 .48866273 .47083537 .4959971 .47650147 .5019989 .48216758 .5080007 .4893341 .5110016 .4980011 .5110016M.2899933 .04600525C.32533265 .04600525 .3566691 .055170698 .3840027 .07350159 .41133628 .09183248 .4328359 .11716207 .4485016 .14949036 .46416728 .18182881 .47200013 .21799724 .47200013 .2579956 .47200013 .29733277 .46416728 .33266703 .4485016 .3639984 .4328359 .3953298 .41133628 .42032878 .3840027 .43899537 .3566691 .45766197 .32533265 .46699525 .2899933 .46699525 .25533549 .46699525 .22417195 .45799256 .19650269 .43998719 .16883342 .42199198 .14716594 .3973287 .13150025 .3659973 .11583456 .33466593 .10800171 .29866538 .10800171 .2579956 .10800171 .21799724 .11583456 .18182881 .13150025 .14949036 .14716594 .11716207 .16866558 .09183248 .19599915 .07350159 .22333272 .055170698 .2546641 .04600525 .2899933 .04600525Z" transform="matrix(44.335670471191406, 0, 0, -44.335670471191406, 346.0227917559617, 229.57445965629472)" fill="#6d6c7d"/>
        </g>
</svg>