<svg xmlns="http://www.w3.org/2000/svg" xmlns:xlink="http://www.w3.org/1999/xlink" width="1920" zoomAndPan="magnify" viewBox="0 0 1440 374.999991" height="500" preserveAspectRatio="xMidYMid meet" version="1.2"><defs/><g id="47233f7ffd"><rect x="0" width="1440" y="0" height="374.999991" style="fill:#ffffff;fill-opacity:1;stroke:none;"/><rect x="0" width="1440" y="0" height="374.999991" style="fill:#ffffff;fill-opacity:1;stroke:none;"/><g style="fill:#1a1a1a;fill-opacity:1;"><g transform="translate(118.725426, 196.745984)"><path style="stroke:none" d="M 64.765625 -17.859375 L 26.078125 -17.859375 L 18.6875 0 L -1.078125 0 L 36.078125 -83.328125 L 55.125 -83.328125 L 92.375 0 L 72.140625 0 Z M 58.6875 -32.5 L 45.46875 -64.40625 L 32.265625 -32.5 Z M 58.6875 -32.5 "/></g></g><g style="fill:#1a1a1a;fill-opacity:1;"><g transform="translate(214.670963, 196.745984)"><path style="stroke:none" d="M 71.078125 -43.328125 C 75.835938 -41.828125 79.566406 -39.304688 82.265625 -35.765625 C 84.960938 -32.234375 86.3125 -27.890625 86.3125 -22.734375 C 86.3125 -15.429688 83.472656 -9.816406 77.796875 -5.890625 C 72.117188 -1.960938 63.84375 0 52.96875 0 L 9.875 0 L 9.875 -83.328125 L 50.59375 -83.328125 C 60.75 -83.328125 68.546875 -81.382812 73.984375 -77.5 C 79.421875 -73.613281 82.140625 -68.335938 82.140625 -61.671875 C 82.140625 -57.617188 81.164062 -54.003906 79.21875 -50.828125 C 77.28125 -47.660156 74.566406 -45.160156 71.078125 -43.328125 Z M 29.046875 -68.8125 L 29.046875 -49.171875 L 48.21875 -49.171875 C 52.976562 -49.171875 56.585938 -50.003906 59.046875 -51.671875 C 61.503906 -53.335938 62.734375 -55.796875 62.734375 -59.046875 C 62.734375 -62.296875 61.503906 -64.734375 59.046875 -66.359375 C 56.585938 -67.992188 52.976562 -68.8125 48.21875 -68.8125 Z M 51.546875 -14.53125 C 56.628906 -14.53125 60.457031 -15.363281 63.03125 -17.03125 C 65.613281 -18.695312 66.90625 -21.273438 66.90625 -24.765625 C 66.90625 -31.671875 61.785156 -35.125 51.546875 -35.125 L 29.046875 -35.125 L 29.046875 -14.53125 Z M 51.546875 -14.53125 "/></g></g><g style="fill:#1a1a1a;fill-opacity:1;"><g transform="translate(310.497469, 196.745984)"><path style="stroke:none" d="M 74.40625 -15.46875 L 74.40625 0 L 9.875 0 L 9.875 -83.328125 L 72.859375 -83.328125 L 72.859375 -67.859375 L 29.046875 -67.859375 L 29.046875 -49.765625 L 67.734375 -49.765625 L 67.734375 -34.765625 L 29.046875 -34.765625 L 29.046875 -15.46875 Z M 74.40625 -15.46875 "/></g></g><g style="fill:#1a1a1a;fill-opacity:1;"><g transform="translate(395.13431, 196.745984)"><path style="stroke:none" d="M 9.875 -83.328125 L 29.171875 -83.328125 L 29.171875 -15.71875 L 70.953125 -15.71875 L 70.953125 0 L 9.875 0 Z M 9.875 -83.328125 "/></g></g><g style="fill:#1a1a1a;fill-opacity:1;"><g transform="translate(471.795502, 196.745984)"><path style="stroke:none" d="M 9.875 -83.328125 L 29.171875 -83.328125 L 29.171875 -15.71875 L 70.953125 -15.71875 L 70.953125 0 L 9.875 0 Z M 9.875 -83.328125 "/></g></g><g style="fill:#1a1a1a;fill-opacity:1;"><g transform="translate(548.456693, 196.745984)"><path style="stroke:none" d="M 64.765625 -17.859375 L 26.078125 -17.859375 L 18.6875 0 L -1.078125 0 L 36.078125 -83.328125 L 55.125 -83.328125 L 92.375 0 L 72.140625 0 Z M 58.6875 -32.5 L 45.46875 -64.40625 L 32.265625 -32.5 Z M 58.6875 -32.5 "/></g></g><g style="fill:#f9943b;fill-opacity:1;"><g transform="translate(644.405049, 196.745984)"><path style="stroke:none" d="M 71.078125 -43.328125 C 75.835938 -41.828125 79.566406 -39.304688 82.265625 -35.765625 C 84.960938 -32.234375 86.3125 -27.890625 86.3125 -22.734375 C 86.3125 -15.429688 83.472656 -9.816406 77.796875 -5.890625 C 72.117188 -1.960938 63.84375 0 52.96875 0 L 9.875 0 L 9.875 -83.328125 L 50.59375 -83.328125 C 60.75 -83.328125 68.546875 -81.382812 73.984375 -77.5 C 79.421875 -73.613281 82.140625 -68.335938 82.140625 -61.671875 C 82.140625 -57.617188 81.164062 -54.003906 79.21875 -50.828125 C 77.28125 -47.660156 74.566406 -45.160156 71.078125 -43.328125 Z M 29.046875 -68.8125 L 29.046875 -49.171875 L 48.21875 -49.171875 C 52.976562 -49.171875 56.585938 -50.003906 59.046875 -51.671875 C 61.503906 -53.335938 62.734375 -55.796875 62.734375 -59.046875 C 62.734375 -62.296875 61.503906 -64.734375 59.046875 -66.359375 C 56.585938 -67.992188 52.976562 -68.8125 48.21875 -68.8125 Z M 51.546875 -14.53125 C 56.628906 -14.53125 60.457031 -15.363281 63.03125 -17.03125 C 65.613281 -18.695312 66.90625 -21.273438 66.90625 -24.765625 C 66.90625 -31.671875 61.785156 -35.125 51.546875 -35.125 L 29.046875 -35.125 L 29.046875 -14.53125 Z M 51.546875 -14.53125 "/></g></g><g style="fill:#f9943b;fill-opacity:1;"><g transform="translate(740.231556, 196.745984)"><path style="stroke:none" d="M 9.875 -83.328125 L 29.171875 -83.328125 L 29.171875 0 L 9.875 0 Z M 9.875 -83.328125 "/></g></g><g style="fill:#f9943b;fill-opacity:1;"><g transform="translate(784.037965, 196.745984)"><path style="stroke:none" d="M 9.875 -83.328125 L 29.171875 -83.328125 L 29.171875 -15.71875 L 70.953125 -15.71875 L 70.953125 0 L 9.875 0 Z M 9.875 -83.328125 "/></g></g><g style="fill:#f9943b;fill-opacity:1;"><g transform="translate(860.69918, 196.745984)"><path style="stroke:none" d="M 86.3125 -83.328125 L 86.3125 0 L 67.015625 0 L 67.015625 -34.171875 L 29.171875 -34.171875 L 29.171875 0 L 9.875 0 L 9.875 -83.328125 L 29.171875 -83.328125 L 29.171875 -50.46875 L 67.015625 -50.46875 L 67.015625 -83.328125 Z M 86.3125 -83.328125 "/></g></g><g style="fill:#f9943b;fill-opacity:1;"><g transform="translate(961.644342, 196.745984)"><path style="stroke:none" d="M 64.765625 -17.859375 L 26.078125 -17.859375 L 18.6875 0 L -1.078125 0 L 36.078125 -83.328125 L 55.125 -83.328125 L 92.375 0 L 72.140625 0 Z M 58.6875 -32.5 L 45.46875 -64.40625 L 32.265625 -32.5 Z M 58.6875 -32.5 "/></g></g><g style="fill:#f9943b;fill-opacity:1;"><g transform="translate(1057.589901, 196.745984)"><path style="stroke:none" d="M 9.875 -83.328125 L 29.171875 -83.328125 L 29.171875 -15.71875 L 70.953125 -15.71875 L 70.953125 0 L 9.875 0 Z M 9.875 -83.328125 "/></g></g><g style="fill:#f9943b;fill-opacity:1;"><g transform="translate(1134.251116, 196.745984)"><path style="stroke:none" d="M 71.078125 -43.328125 C 75.835938 -41.828125 79.566406 -39.304688 82.265625 -35.765625 C 84.960938 -32.234375 86.3125 -27.890625 86.3125 -22.734375 C 86.3125 -15.429688 83.472656 -9.816406 77.796875 -5.890625 C 72.117188 -1.960938 63.84375 0 52.96875 0 L 9.875 0 L 9.875 -83.328125 L 50.59375 -83.328125 C 60.75 -83.328125 68.546875 -81.382812 73.984375 -77.5 C 79.421875 -73.613281 82.140625 -68.335938 82.140625 -61.671875 C 82.140625 -57.617188 81.164062 -54.003906 79.21875 -50.828125 C 77.28125 -47.660156 74.566406 -45.160156 71.078125 -43.328125 Z M 29.046875 -68.8125 L 29.046875 -49.171875 L 48.21875 -49.171875 C 52.976562 -49.171875 56.585938 -50.003906 59.046875 -51.671875 C 61.503906 -53.335938 62.734375 -55.796875 62.734375 -59.046875 C 62.734375 -62.296875 61.503906 -64.734375 59.046875 -66.359375 C 56.585938 -67.992188 52.976562 -68.8125 48.21875 -68.8125 Z M 51.546875 -14.53125 C 56.628906 -14.53125 60.457031 -15.363281 63.03125 -17.03125 C 65.613281 -18.695312 66.90625 -21.273438 66.90625 -24.765625 C 66.90625 -31.671875 61.785156 -35.125 51.546875 -35.125 L 29.046875 -35.125 L 29.046875 -14.53125 Z M 51.546875 -14.53125 "/></g></g><g style="fill:#f9943b;fill-opacity:1;"><g transform="translate(1230.077611, 196.745984)"><path style="stroke:none" d="M 64.765625 -17.859375 L 26.078125 -17.859375 L 18.6875 0 L -1.078125 0 L 36.078125 -83.328125 L 55.125 -83.328125 L 92.375 0 L 72.140625 0 Z M 58.6875 -32.5 L 45.46875 -64.40625 L 32.265625 -32.5 Z M 58.6875 -32.5 "/></g></g><g style="fill:#1a1a1a;fill-opacity:1;"><g transform="translate(394.081487, 272.939982)"><path style="stroke:none" d="M 47.0625 -6.6875 L 47.0625 0 L 8.0625 0 L 8.0625 -53.75 L 45.984375 -53.75 L 45.984375 -47.0625 L 15.734375 -47.0625 L 15.734375 -30.5625 L 42.6875 -30.5625 L 42.6875 -24.03125 L 15.734375 -24.03125 L 15.734375 -6.6875 Z M 47.0625 -6.6875 "/></g></g><g style="fill:#1a1a1a;fill-opacity:1;"><g transform="translate(457.805175, 272.939982)"><path style="stroke:none" d="M 54.28125 -53.75 L 54.28125 0 L 47.984375 0 L 15.734375 -40.078125 L 15.734375 0 L 8.0625 0 L 8.0625 -53.75 L 14.359375 -53.75 L 46.609375 -13.671875 L 46.609375 -53.75 Z M 54.28125 -53.75 "/></g></g><g style="fill:#1a1a1a;fill-opacity:1;"><g transform="translate(532.430154, 272.939982)"><path style="stroke:none" d="M 45.296875 -27.1875 L 52.671875 -27.1875 L 52.671875 -6.21875 C 50.003906 -4.019531 46.90625 -2.332031 43.375 -1.15625 C 39.84375 0.0195312 36.160156 0.609375 32.328125 0.609375 C 26.898438 0.609375 22.007812 -0.578125 17.65625 -2.953125 C 13.3125 -5.335938 9.894531 -8.613281 7.40625 -12.78125 C 4.925781 -16.957031 3.6875 -21.65625 3.6875 -26.875 C 3.6875 -32.09375 4.925781 -36.800781 7.40625 -41 C 9.894531 -45.195312 13.328125 -48.472656 17.703125 -50.828125 C 22.078125 -53.179688 27.003906 -54.359375 32.484375 -54.359375 C 36.773438 -54.359375 40.675781 -53.65625 44.1875 -52.25 C 47.695312 -50.84375 50.675781 -48.78125 53.125 -46.0625 L 48.375 -41.3125 C 44.070312 -45.457031 38.875 -47.53125 32.78125 -47.53125 C 28.6875 -47.53125 25.015625 -46.644531 21.765625 -44.875 C 18.515625 -43.113281 15.96875 -40.65625 14.125 -37.5 C 12.28125 -34.351562 11.359375 -30.8125 11.359375 -26.875 C 11.359375 -22.976562 12.28125 -19.457031 14.125 -16.3125 C 15.96875 -13.164062 18.515625 -10.695312 21.765625 -8.90625 C 25.015625 -7.113281 28.660156 -6.21875 32.703125 -6.21875 C 37.515625 -6.21875 41.710938 -7.367188 45.296875 -9.671875 Z M 45.296875 -27.1875 "/></g></g><g style="fill:#1a1a1a;fill-opacity:1;"><g transform="translate(603.984369, 272.939982)"><path style="stroke:none" d="M 47.0625 -6.6875 L 47.0625 0 L 8.0625 0 L 8.0625 -53.75 L 45.984375 -53.75 L 45.984375 -47.0625 L 15.734375 -47.0625 L 15.734375 -30.5625 L 42.6875 -30.5625 L 42.6875 -24.03125 L 15.734375 -24.03125 L 15.734375 -6.6875 Z M 47.0625 -6.6875 "/></g></g><g style="fill:#1a1a1a;fill-opacity:1;"><g transform="translate(667.708057, 272.939982)"><path style="stroke:none" d="M 54.28125 -53.75 L 54.28125 0 L 47.984375 0 L 15.734375 -40.078125 L 15.734375 0 L 8.0625 0 L 8.0625 -53.75 L 14.359375 -53.75 L 46.609375 -13.671875 L 46.609375 -53.75 Z M 54.28125 -53.75 "/></g></g><g style="fill:#1a1a1a;fill-opacity:1;"><g transform="translate(742.333037, 272.939982)"><path style="stroke:none" d="M 54.28125 -53.75 L 54.28125 0 L 46.609375 0 L 46.609375 -23.953125 L 15.734375 -23.953125 L 15.734375 0 L 8.0625 0 L 8.0625 -53.75 L 15.734375 -53.75 L 15.734375 -30.640625 L 46.609375 -30.640625 L 46.609375 -53.75 Z M 54.28125 -53.75 "/></g></g><g style="fill:#1a1a1a;fill-opacity:1;"><g transform="translate(816.958016, 272.939982)"><path style="stroke:none" d="M 42.3125 -13.4375 L 13.75 -13.4375 L 7.828125 0 L -0.078125 0 L 24.265625 -53.75 L 31.859375 -53.75 L 56.28125 0 L 48.21875 0 Z M 39.625 -19.578125 L 28.03125 -45.921875 L 16.4375 -19.578125 Z M 39.625 -19.578125 "/></g></g><g style="fill:#1a1a1a;fill-opacity:1;"><g transform="translate(885.441419, 272.939982)"><path style="stroke:none" d="M 44 0 L 32.40625 -16.515625 C 30.96875 -16.410156 29.835938 -16.359375 29.015625 -16.359375 L 15.734375 -16.359375 L 15.734375 0 L 8.0625 0 L 8.0625 -53.75 L 29.015625 -53.75 C 35.984375 -53.75 41.460938 -52.082031 45.453125 -48.75 C 49.441406 -45.425781 51.4375 -40.847656 51.4375 -35.015625 C 51.4375 -30.867188 50.410156 -27.335938 48.359375 -24.421875 C 46.316406 -21.503906 43.40625 -19.378906 39.625 -18.046875 L 52.359375 0 Z M 28.796875 -22.875 C 33.660156 -22.875 37.367188 -23.921875 39.921875 -26.015625 C 42.484375 -28.117188 43.765625 -31.117188 43.765625 -35.015625 C 43.765625 -38.898438 42.484375 -41.878906 39.921875 -43.953125 C 37.367188 -46.023438 33.660156 -47.0625 28.796875 -47.0625 L 15.734375 -47.0625 L 15.734375 -22.875 Z M 28.796875 -22.875 "/></g></g><g style="fill:#1a1a1a;fill-opacity:1;"><g transform="translate(953.541005, 272.939982)"><path style="stroke:none" d="M 8.0625 -53.75 L 15.734375 -53.75 L 15.734375 0 L 8.0625 0 Z M 8.0625 -53.75 "/></g></g><g style="fill:#1a1a1a;fill-opacity:1;"><g transform="translate(989.627619, 272.939982)"><path style="stroke:none" d="M 42.3125 -13.4375 L 13.75 -13.4375 L 7.828125 0 L -0.078125 0 L 24.265625 -53.75 L 31.859375 -53.75 L 56.28125 0 L 48.21875 0 Z M 39.625 -19.578125 L 28.03125 -45.921875 L 16.4375 -19.578125 Z M 39.625 -19.578125 "/></g></g><path style="fill:none;stroke-width:2;stroke-linecap:round;stroke-linejoin:miter;stroke:#1a1a1a;stroke-opacity:1;stroke-miterlimit:4;" d="M 0.999471 0.999512 L 98.017286 0.999512 " transform="matrix(2.879545,0,0,2.879545,99.528227,242.699984)"/><path style="fill:none;stroke-width:2;stroke-linecap:round;stroke-linejoin:miter;stroke:#1a1a1a;stroke-opacity:1;stroke-miterlimit:4;" d="M 1.000593 0.999512 L 98.017051 0.999512 " transform="matrix(2.879545,0,0,2.879545,1055.30234,242.699984)"/></g></svg>